<svg width="77" height="33" viewBox="0 0 77 33" fill="none" xmlns="http://www.w3.org/2000/svg">
<g id="Arch 3">
<path id="Subtract" fill-rule="evenodd" clip-rule="evenodd" d="M10.4751 26.4341L8.66524 31.4431H0L12.2849 1.2793H19.7436L32.0285 31.4431H23.3632L21.5534 26.4341H10.4751ZM16.0142 12.2113L13.2172 19.3775H18.8112L16.0142 12.2113Z" fill="#1B1D23"/>
<path id="Path" d="M36.2697 31.4435V22.2664C36.2697 21.6448 36.4465 21.0659 36.7999 20.5297C37.1533 19.9935 37.6195 19.5578 38.1984 19.2226C38.7773 18.8874 39.3897 18.7199 40.0356 18.7199C40.5475 18.7199 41.1112 18.8235 41.7266 19.0306C42.3421 19.2378 42.8753 19.5121 43.3262 19.8533L46.5072 13.4549C45.9831 13.0649 45.3189 12.748 44.5145 12.5043C43.7101 12.2605 42.9484 12.1387 42.2294 12.1387C41.1203 12.1387 40.0448 12.422 39.0028 12.9887C37.9607 13.5555 37.0497 14.3446 36.2697 15.3561V12.7237H28.6648V31.4435H36.2697Z" fill="#1B1D23"/>
<path id="Path_2" d="M51.4796 32.0285C52.6862 32.0285 53.8348 31.8609 54.9256 31.5258C56.0164 31.1906 56.8786 30.7976 57.5124 30.3466L55.0262 25.2279C54.7946 25.3864 54.4747 25.5296 54.0664 25.6575C53.6581 25.7855 53.2102 25.8495 52.7227 25.8495C51.9306 25.8495 51.242 25.6758 50.657 25.3285C50.072 24.9811 49.6241 24.5211 49.3133 23.9483C49.0025 23.3755 48.8472 22.7539 48.8472 22.0836C48.8472 21.5473 48.9782 20.9867 49.2402 20.4017C49.5022 19.8167 49.9166 19.3231 50.4833 18.921C51.05 18.5188 51.7843 18.3177 52.6862 18.3177C53.6368 18.3177 54.4168 18.5249 55.0262 18.9392L57.5124 13.8205C56.903 13.3574 56.0377 12.9613 54.9165 12.6323C53.7952 12.3032 52.6374 12.1387 51.4431 12.1387C49.9196 12.1387 48.509 12.4159 47.211 12.9705C45.913 13.525 44.7857 14.2745 43.829 15.219C42.8723 16.1636 42.1288 17.23 41.5987 18.4182C41.0685 19.6065 40.8035 20.8344 40.8035 22.1019C40.8035 23.4547 41.0868 24.7313 41.6535 25.9318C42.2203 27.1322 42.9972 28.1895 43.9844 29.1035C44.9716 30.0176 46.108 30.7336 47.3938 31.2516C48.6796 31.7695 50.0415 32.0285 51.4796 32.0285Z" fill="#1B1D23"/>
<path id="Path_3" d="M63.2526 31.4435V21.133C63.2526 20.4992 63.3806 19.9508 63.6365 19.4877C63.8925 19.0245 64.252 18.665 64.7151 18.4091C65.1783 18.1531 65.7145 18.0252 66.3239 18.0252C67.2501 18.0252 67.9935 18.3085 68.5542 18.8752C69.1148 19.442 69.3951 20.1945 69.3951 21.133V31.4435H77V19.4877C77 18.0861 76.671 16.8338 76.0129 15.7309C75.3547 14.6279 74.462 13.7535 73.3347 13.1076C72.2073 12.4616 70.9307 12.1387 69.5048 12.1387C68.3835 12.1387 67.2775 12.3428 66.1868 12.7511C65.096 13.1593 64.1179 13.7352 63.2526 14.4786V0H55.6477V31.4435H63.2526Z" fill="#1B1D23"/>
</g>
</svg>
